<svg xmlns="http://www.w3.org/2000/svg" width="338" height="126" fill="none" viewBox="0 0 338 126"><g clip-path="url(#a)"><path fill="#F5F5F5" d="M26.144 111.76c16.188 0 22.648-7.448 22.648-15.732 0-6.992-4.104-12.54-15.504-14.364L19 79.384c-4.256-.76-5.928-1.824-5.928-4.788 0-3.268 2.508-4.864 10.716-4.864 10.108 0 12.616 2.052 12.616 6.916v1.064H47.88v-.456c0-10.716-7.296-17.936-22.952-17.936-17.1 0-23.332 8.056-23.332 15.732 0 8.284 5.396 12.844 14.516 14.288L30.4 91.392c5.244.912 6.992 2.052 6.992 5.168 0 3.42-2.128 4.788-11.248 4.788-10.336 0-12.692-1.9-12.692-6.612v-1.368h-11.4v.456c0 11.856 8.664 17.936 24.092 17.936Zm43.023 0c10.031 0 14.668-6.004 15.656-12.388h.608V111h10.64V72.924h-11.4v19.304c0 6.46-2.66 9.348-10.109 9.348-7.22 0-9.803-2.584-9.803-8.74V72.924h-11.4v23.712c0 8.512 5.091 15.124 15.807 15.124Zm49.452-4.636c8.512 0 12.996-3.876 14.212-9.5h.608v8.588c0 7.448-2.204 8.968-9.5 8.968-7.752 0-9.424-1.292-9.424-5.548h-11.4c0 9.576 7.752 15.048 20.064 15.048 13.604 0 21.66-5.928 21.66-19.228V72.924h-10.64v9.196h-.608c-1.216-6.612-6.764-9.956-14.516-9.956-11.4 0-18.316 6.84-18.316 17.48 0 10.716 6.536 17.48 17.86 17.48Zm-6.384-17.48c0-5.624 3.192-7.6 10.488-7.6 7.068 0 10.716 1.976 10.716 7.144v.836c0 5.244-3.572 7.296-10.868 7.296-7.144 0-10.336-2.052-10.336-7.676ZM162.284 111V88.96c0-4.788 1.824-7.144 6.916-7.144 4.636 0 6.308 1.824 6.308 6.004v3.952h11.4v-6.308c0-7.448-3.496-13.3-12.008-13.3-7.676 0-11.704 4.712-12.768 10.868h-.684V72.924h-10.564V111h11.4Zm40.456.76c8.436 0 13.756-3.572 15.504-9.5h.608V111h10.64V88.656c0-9.956-6.004-16.492-18.696-16.492-12.54 0-20.444 6.536-20.444 15.96v.228h11.476v-.304c0-4.332 2.356-5.852 8.132-5.852 6.08 0 8.284 1.368 8.284 6.308v1.444l-16.34 1.672c-8.132.836-12.312 4.332-12.312 9.956 0 6.384 4.94 10.184 13.148 10.184Zm-1.672-10.944c0-1.824 1.216-2.584 3.952-2.812l13.224-1.52c-.304 5.396-4.484 7.22-12.236 7.22-3.344 0-4.94-.836-4.94-2.888ZM246.67 111V88.96c0-4.788 1.824-7.144 6.916-7.144 4.636 0 6.308 1.824 6.308 6.004v3.952h11.4v-6.308c0-7.448-3.496-13.3-12.008-13.3-7.676 0-11.704 4.712-12.768 10.868h-.684V72.924H235.27V111h11.4Zm40.153-41.952V60.08h-11.4v8.968h11.4Zm0 41.952V72.924h-11.4V111h11.4Zm17.367 0V91.772c0-6.46 2.584-9.348 9.804-9.348 6.992 0 9.5 2.584 9.5 8.664V111h11.4V87.288c0-8.436-4.94-15.124-15.352-15.124-9.956 0-14.516 6.08-15.504 12.464h-.684V72.924H292.79V111h11.4ZM31.388 52V11.34h18.924V1.08H1.064v10.26h18.924V52h11.4Zm34.411-41.952V1.08H54.4v8.968h11.4ZM65.8 52V13.924H54.4V52h11.4Zm17.368 0V32.772c0-6.612 1.976-9.348 8.892-9.348 6.536 0 8.74 2.356 8.74 8.664V52h11.4V32.772c0-6.612 1.976-9.348 8.892-9.348 6.536 0 8.74 2.356 8.74 8.664V52h11.4V28.288c0-8.664-4.788-15.124-14.592-15.124s-13.68 6.004-14.592 12.464h-.684c-.836-7.068-5.32-12.464-14.136-12.464-9.576 0-13.376 5.928-14.288 12.312h-.608V13.924H71.767V52h11.4Zm79.589.76c10.032 0 14.668-6.004 15.656-12.388h.608V52h10.64V13.924h-11.4v19.304c0 6.46-2.66 9.348-10.108 9.348-7.22 0-9.804-2.584-9.804-8.74V13.924h-11.4v23.712c0 8.512 5.092 15.124 15.808 15.124Zm44.133-.76V29.96c0-4.788 1.824-7.144 6.916-7.144 4.636 0 6.308 1.824 6.308 6.004v3.952h11.4v-6.308c0-7.448-3.496-13.3-12.008-13.3-7.676 0-11.704 4.712-12.768 10.868h-.684V13.924h-10.564V52h11.4Z"/><path fill="#3F3F3F" d="M271 16.5c0 3.59-2.686 6.5-6 6.5s-6-2.91-6-6.5 2.686-6.5 6-6.5 6 2.91 6 6.5Z"/><path fill="#3F3F3F" d="M280 20c0 3.314-2.91 6-6.5 6s-6.5-2.686-6.5-6 2.91-6 6.5-6 6.5 2.686 6.5 6Z"/><path fill="#3F3F3F" d="M284 28.5a6.5 6.5 0 1 1-13 0 6.5 6.5 0 0 1 13 0Z"/><path fill="#3F3F3F" d="M280 37.5c0 3.59-2.686 6.5-6 6.5s-6-2.91-6-6.5 2.686-6.5 6-6.5 6 2.91 6 6.5Z"/><path fill="#3F3F3F" d="M271 40.5c0 3.59-2.686 6.5-6 6.5s-6-2.91-6-6.5 2.686-6.5 6-6.5 6 2.91 6 6.5Z"/><path fill="#3F3F3F" d="M263 37.5a6.5 6.5 0 1 1-13 0 6.5 6.5 0 0 1 13 0Z"/><path fill="#3F3F3F" d="M259 28.5a6.5 6.5 0 1 1-13 0 6.5 6.5 0 0 1 13 0Z"/><path fill="#3F3F3F" d="M263 20c0 3.314-2.91 6-6.5 6s-6.5-2.686-6.5-6 2.91-6 6.5-6 6.5 2.686 6.5 6Z"/><path fill="#3F3F3F" d="M276 29.5c0 5.799-4.701 10.5-10.5 10.5S255 35.299 255 29.5 259.701 19 265.5 19 276 23.701 276 29.5Z"/><path fill="#fff" fill-rule="evenodd" d="m262.01 35.414-6.727-6.727 2.114-2.114 6.727 6.727-2.114 2.114Z" clip-rule="evenodd"/><path fill="#fff" fill-rule="evenodd" d="m260.141 33.545 11.586-11.585 2.114 2.114-11.586 11.586-2.114-2.115Z" clip-rule="evenodd"/><path fill="#3F3F3F" d="M316 16.5c0 3.59-2.686 6.5-6 6.5s-6-2.91-6-6.5 2.686-6.5 6-6.5 6 2.91 6 6.5Z"/><path fill="#3F3F3F" d="M325 20c0 3.314-2.91 6-6.5 6s-6.5-2.686-6.5-6 2.91-6 6.5-6 6.5 2.686 6.5 6Z"/><path fill="#3F3F3F" d="M329 28.5a6.5 6.5 0 1 1-13 0 6.5 6.5 0 0 1 13 0Z"/><path fill="#3F3F3F" d="M325 37.5c0 3.59-2.686 6.5-6 6.5s-6-2.91-6-6.5 2.686-6.5 6-6.5 6 2.91 6 6.5Z"/><path fill="#3F3F3F" d="M316 40.5c0 3.59-2.686 6.5-6 6.5s-6-2.91-6-6.5 2.686-6.5 6-6.5 6 2.91 6 6.5Z"/><path fill="#3F3F3F" d="M308 37.5a6.5 6.5 0 1 1-13 0 6.5 6.5 0 0 1 13 0Z"/><path fill="#3F3F3F" d="M304 28.5a6.5 6.5 0 1 1-13 0 6.5 6.5 0 0 1 13 0Z"/><path fill="#3F3F3F" d="M308 20c0 3.314-2.91 6-6.5 6s-6.5-2.686-6.5-6 2.91-6 6.5-6 6.5 2.686 6.5 6Z"/><path fill="#3F3F3F" d="M321 29.5c0 5.799-4.701 10.5-10.5 10.5S300 35.299 300 29.5 304.701 19 310.5 19 321 23.701 321 29.5Z"/><path fill="#fff" fill-rule="evenodd" d="m307.01 35.414-6.727-6.727 2.114-2.114 6.727 6.727-2.114 2.114Z" clip-rule="evenodd"/><path fill="#fff" fill-rule="evenodd" d="m305.141 33.545 11.586-11.585 2.114 2.114-11.586 11.586-2.114-2.115Z" clip-rule="evenodd"/></g><defs><clipPath id="a"><path fill="#fff" d="M0 0h338v126H0z"/></clipPath></defs></svg>